<?xml version="1.0" encoding="UTF-8"?>
<svg width="24" height="24" viewBox="0 0 24 24" fill="none"
     xmlns="http://www.w3.org/2000/svg" aria-hidden="true" focusable="false">
  <title>Settings</title>
  <g fill="currentColor" fill-rule="evenodd" clip-rule="evenodd" stroke="none">
    <!-- Gear body (subtle filled center) -->
    <circle cx="12" cy="12" r="3" fill="currentColor" fill-opacity="0.18"/>

    <!-- Gear teeth (stroke) -->
    <g stroke="currentColor" stroke-opacity="0.92" stroke-width="1.1" stroke-linecap="round" stroke-linejoin="round" fill="none">
      <path d="M12 2.8v1.6" />
      <path d="M12 19.6v1.6" />
      <path d="M4.6 4.6l1.1 1.1" />
      <path d="M18.3 18.3l1.1 1.1" />
      <path d="M2.8 12h1.6" />
      <path d="M19.6 12h1.6" />
      <path d="M4.6 19.4l1.1-1.1" />
      <path d="M18.3 5.7l1.1-1.1" />
      <!-- outer ring to tie teeth together -->
      <path d="M16.9 16.9c-0.9 0.9-2.1 1.4-3.4 1.4-1.3 0-2.5-0.5-3.4-1.4s-1.4-2.1-1.4-3.4c0-1.3 0.5-2.5 1.4-3.4s2.1-1.4 3.4-1.4c1.3 0 2.5 0.5 3.4 1.4 0.9 0.9 1.4 2.1 1.4 3.4 0 1.3-0.5 2.5-1.4 3.4z"/>
    </g>

    <!-- subtle outer outline box for cohesion with other sidebar icons -->
    <rect x="1.6" y="1.6" width="20.8" height="20.8" rx="3.2" ry="3.2"
          stroke="currentColor" stroke-opacity="0.06" fill="none" stroke-width="1.2"/>
  </g>
</svg>
